/* XPM */
static char * viking_icon_xpm[] = {
"32 32 502 2",
"  	c None",
". 	c #437399",
"+ 	c #3978A8",
"@ 	c #307AB2",
"# 	c #2773AC",
"$ 	c #2069A2",
"% 	c #195887",
"& 	c #134367",
"* 	c #0E2130",
"= 	c #5A95C1",
"- 	c #52A2DE",
"; 	c #489EDF",
"> 	c #3F94D6",
", 	c #3589CD",
"' 	c #2C81C7",
") 	c #2478BE",
"! 	c #1D71B3",
"~ 	c #166AAA",
"{ 	c #11619C",
"] 	c #0C4670",
"^ 	c #63B2F4",
"/ 	c #5DB4FB",
"( 	c #55A9F0",
"_ 	c #4D9DD6",
": 	c #4493C1",
"< 	c #3B86A0",
"[ 	c #327878",
"} 	c #296F71",
"| 	c #2070A7",
"1 	c #196BAF",
"2 	c #1366AA",
"3 	c #0E63A9",
"4 	c #0B5589",
"5 	c #07191D",
"6 	c #68ADB5",
"7 	c #65ACA5",
"8 	c #5FA6A8",
"9 	c #599F9C",
"0 	c #529060",
"a 	c #498D7F",
"b 	c #3F868B",
"c 	c #387130",
"d 	c #2D7375",
"e 	c #2476BB",
"f 	c #1E6571",
"g 	c #175D61",
"h 	c #115A73",
"i 	c #0E4F31",
"j 	c #0B420C",
"k 	c #061406",
"l 	c #66A496",
"m 	c #66A25D",
"n 	c #649E5A",
"o 	c #609A5A",
"p 	c #599E95",
"q 	c #53936F",
"r 	c #4A95B1",
"s 	c #418DAC",
"t 	c #3889BF",
"u 	c #307B99",
"v 	c #2775A2",
"w 	c #215E31",
"x 	c #1C5414",
"y 	c #154E0D",
"z 	c #11490A",
"A 	c #0C4709",
"B 	c #093D07",
"C 	c #050905",
"D 	c #5B92BF",
"E 	c #5EA599",
"F 	c #609A58",
"G 	c #5F9B5F",
"H 	c #5C985E",
"I 	c #58945B",
"J 	c #539166",
"K 	c #4A97BF",
"L 	c #4195DB",
"M 	c #3A8CCC",
"N 	c #3281B6",
"O 	c #2B6B50",
"P 	c #245E23",
"Q 	c #1D571A",
"R 	c #165118",
"S 	c #124B10",
"T 	c #0E460B",
"U 	c #0A4608",
"V 	c #062B05",
"W 	c #696969",
"X 	c #5C5C5C",
"Y 	c #303030",
"Z 	c #53979B",
"` 	c #57914D",
" .	c #589456",
"..	c #599353",
"+.	c #579252",
"@.	c #539998",
"#.	c #4E9ED3",
"$.	c #489AD7",
"%.	c #4193D0",
"&.	c #3381AF",
"*.	c #2D6C50",
"=.	c #246967",
"-.	c #1F5A25",
";.	c #185114",
">.	c #134C10",
",.	c #0E480C",
"'.	c #0B4408",
").	c #093E06",
"!.	c #000400",
"~.	c #7A7A7B",
"{.	c #686868",
"].	c #5A5A5A",
"^.	c #252525",
"/.	c #436F9B",
"(.	c #488C6D",
"_.	c #4D8643",
":.	c #4F8A50",
"<.	c #508C54",
"[.	c #4E9699",
"}.	c #4C9FE6",
"|.	c #499AD9",
"1.	c #4596D4",
"2.	c #3F91CE",
"3.	c #398BCD",
"4.	c #337E9E",
"5.	c #2D6B43",
"6.	c #25685E",
"7.	c #1E6361",
"8.	c #185B50",
"9.	c #144D12",
"0.	c #0F490E",
"a.	c #0C4405",
"b.	c #0A4305",
"c.	c #052303",
"d.	c #828372",
"e.	c #7E7C7B",
"f.	c #68666D",
"g.	c #474747",
"h.	c #1F201F",
"i.	c #3871A4",
"j.	c #3E8678",
"k.	c #427E4A",
"l.	c #4391B8",
"m.	c #468F9E",
"n.	c #4597D8",
"o.	c #4394D2",
"p.	c #4091D0",
"q.	c #3B8DCA",
"r.	c #3787C2",
"s.	c #33704A",
"t.	c #2D6625",
"u.	c #265F1E",
"v.	c #205817",
"w.	c #1A5319",
"x.	c #144F21",
"y.	c #104705",
"z.	c #0B4929",
"A.	c #003B16",
"B.	c #487932",
"C.	c #D2FF8D",
"D.	c #ACD374",
"E.	c #879464",
"F.	c #363833",
"G.	c #17121B",
"H.	c #2E70A5",
"I.	c #3284B6",
"J.	c #37785D",
"K.	c #3A7E71",
"L.	c #3A89B4",
"M.	c #3C88A8",
"N.	c #3C8DCB",
"O.	c #3B8CC9",
"P.	c #3A8BC9",
"Q.	c #3688CA",
"R.	c #337E9F",
"S.	c #30692D",
"T.	c #2B642A",
"U.	c #1F581E",
"V.	c #195216",
"W.	c #145029",
"X.	c #0F4A19",
"Y.	c #085167",
"Z.	c #055286",
"`.	c #99CA78",
" +	c #C5FF90",
".+	c #B3F677",
"++	c #A6E865",
"@+	c #86C558",
"#+	c #5F863E",
"$+	c #25679A",
"%+	c #297DBE",
"&+	c #2B7FC5",
"*+	c #2F7A96",
"=+	c #32797C",
"-+	c #347768",
";+	c #347FA0",
">+	c #3386CD",
",+	c #3283C2",
"'+	c #3081C0",
")+	c #2D7CAE",
"!+	c #2C683B",
"~+	c #276024",
"{+	c #225B1E",
"]+	c #1D561B",
"^+	c #185115",
"/+	c #144C0F",
"(+	c #0F4E30",
"_+	c #035396",
":+	c #307593",
"<+	c #CFFF9A",
"[+	c #C8F688",
"}+	c #D0E289",
"|+	c #B8D771",
"1+	c #9FD45A",
"2+	c #89D04F",
"3+	c #7ABD47",
"4+	c #5E9035",
"5+	c #1D5E90",
"6+	c #2074B5",
"7+	c #2374B1",
"8+	c #2577BA",
"9+	c #296B51",
"0+	c #2C641A",
"a+	c #2D672A",
"b+	c #2C6F61",
"c+	c #2A7BB9",
"d+	c #297AB8",
"e+	c #2778B7",
"f+	c #2472A7",
"g+	c #216FA4",
"h+	c #1E6059",
"i+	c #1B5212",
"j+	c #174F16",
"k+	c #124A0B",
"l+	c #105455",
"m+	c #004D97",
"n+	c #89C098",
"o+	c #D2FF90",
"p+	c #CEE094",
"q+	c #C4D288",
"r+	c #BBC87C",
"s+	c #B6C673",
"t+	c #A2B959",
"u+	c #87BE46",
"v+	c #72B43F",
"w+	c #263718",
"x+	c #164C77",
"y+	c #186EB0",
"z+	c #1A6CAC",
"A+	c #1D6DA4",
"B+	c #215E2C",
"C+	c #235D20",
"D+	c #255F22",
"E+	c #255E1D",
"F+	c #25654A",
"G+	c #2272AC",
"H+	c #2070AE",
"I+	c #1F6FAB",
"J+	c #1C6CAF",
"K+	c #196380",
"L+	c #184F0F",
"M+	c #104D2F",
"N+	c #07579A",
"O+	c #206993",
"P+	c #C3FA95",
"Q+	c #CAF48E",
"R+	c #D3E094",
"S+	c #ADBC76",
"T+	c #8D995F",
"U+	c #93A15E",
"V+	c #AEBA6B",
"W+	c #8BB14A",
"X+	c #6EB03B",
"Y+	c #171F10",
"Z+	c #103958",
"`+	c #1266A6",
" @	c #1466A4",
".@	c #1568AB",
"+@	c #195F62",
"@@	c #1C5513",
"#@	c #1D571B",
"$@	c #1E5718",
"%@	c #1E5B33",
"&@	c #1B6BA4",
"*@	c #1A6AA7",
"=@	c #1968A5",
"-@	c #1667A6",
";@	c #15618C",
">@	c #144C0D",
",@	c #11490C",
"'@	c #0D4A27",
")@	c #014C74",
"!@	c #6AAD93",
"~@	c #CBFF89",
"{@	c #CCE58F",
"]@	c #C2D186",
"^@	c #97A368",
"/@	c #8B975C",
"(@	c #98A65F",
"_@	c #9EAD5F",
":@	c #84BE44",
"<@	c #4C772B",
"[@	c #030006",
"}@	c #0D5C97",
"|@	c #0F609F",
"1@	c #10619E",
"2@	c #1264A6",
"3@	c #15553D",
"4@	c #175010",
"5@	c #185010",
"6@	c #165C5D",
"7@	c #1566A7",
"8@	c #1564A0",
"9@	c #1463A0",
"0@	c #1262A2",
"a@	c #115C86",
"b@	c #10490A",
"c@	c #0F4606",
"d@	c #084D53",
"e@	c #135550",
"f@	c #A9EE8C",
"g@	c #BEF27F",
"h@	c #CFDC90",
"i@	c #A5B370",
"j@	c #8F9A61",
"k@	c #8B9759",
"l@	c #A1AF64",
"m@	c #94AD51",
"n@	c #77BE3F",
"o@	c #1F2C14",
"p@	c #050406",
"q@	c #093F68",
"r@	c #0A5E9F",
"s@	c #0C5B97",
"t@	c #0C5FA2",
"u@	c #0E5664",
"v@	c #114904",
"w@	c #114E26",
"x@	c #0F609E",
"y@	c #105F9C",
"z@	c #0F5E9B",
"A@	c #0E5D9B",
"B@	c #0D5B92",
"C@	c #0E4715",
"D@	c #0D4920",
"E@	c #004D91",
"F@	c #4E9481",
"G@	c #B6FC77",
"H@	c #BDD880",
"I@	c #C1CF82",
"J@	c #8E9A60",
"K@	c #7B8553",
"L@	c #8E9D58",
"M@	c #A4B062",
"N@	c #85BA44",
"O@	c #54832F",
"P@	c #080709",
"Q@	c #07528B",
"R@	c #085B9A",
"S@	c #09599A",
"T@	c #0A5782",
"U@	c #0D4500",
"V@	c #0C5361",
"W@	c #0B5C9D",
"X@	c #0B5B97",
"Y@	c #0B5A97",
"Z@	c #0A5996",
"`@	c #095894",
" #	c #094F5F",
".#	c #09547B",
"+#	c #025092",
"@#	c #88CD74",
"##	c #ABE36D",
"$#	c #B0BF79",
"%#	c #9DAC65",
"&#	c #7D8950",
"*#	c #A4B363",
"=#	c #97AF54",
"-#	c #77B83E",
";#	c #2A3F1A",
">#	c #020005",
",#	c #041929",
"'#	c #05528D",
")#	c #065897",
"!#	c #065695",
"~#	c #09482F",
"{#	c #085379",
"]#	c #075897",
"^#	c #075793",
"/#	c #075794",
"(#	c #075692",
"_#	c #065591",
":#	c #055597",
"<#	c #004D93",
"[#	c #317B7F",
"}#	c #9BDE60",
"|#	c #A5C86B",
"1#	c #B6C474",
"2#	c #828E55",
"3#	c #ABBC68",
"4#	c #79854B",
"5#	c #909B56",
"6#	c #86B244",
"7#	c #5E9633",
"8#	c #080708",
"9#	c #03192A",
"0#	c #04508A",
"a#	c #04589C",
"b#	c #055070",
"c#	c #064E66",
"d#	c #055595",
"e#	c #055490",
"f#	c #055491",
"g#	c #05538F",
"h#	c #04528F",
"i#	c #03528E",
"j#	c #01508F",
"k#	c #67AB65",
"l#	c #92D653",
"m#	c #A3BF5F",
"n#	c #B7C474",
"o#	c #94A25B",
"p#	c #78834A",
"q#	c #8A9752",
"r#	c #8E9F50",
"s#	c #7BBE3D",
"t#	c #2F481C",
"u#	c #030004",
"v#	c #020C13",
"w#	c #033D69",
"x#	c #025291",
"y#	c #025693",
"z#	c #035593",
"A#	c #04538F",
"B#	c #025492",
"C#	c #004C8C",
"D#	c #1C5C6B",
"E#	c #87C94D",
"F#	c #81B549",
"G#	c #88BB46",
"H#	c #96C04B",
"I#	c #9AAD57",
"J#	c #A5B460",
"K#	c #A5B161",
"L#	c #83AB40",
"M#	c #609C33",
"N#	c #0D100A",
"O#	c #050405",
"P#	c #011626",
"Q#	c #013156",
"R#	c #02406E",
"S#	c #024B84",
"T#	c #024D86",
"U#	c #013F6F",
"V#	c #043455",
"W#	c #000622",
"X#	c #5B882F",
"Y#	c #82C746",
"Z#	c #64693B",
"`#	c #74923B",
" $	c #6D943C",
".$	c #83BA37",
"+$	c #86B13D",
"@$	c #7FA33F",
"#$	c #73B63A",
"$$	c #3A5B1F",
"%$	c #000003",
"&$	c #01080E",
"*$	c #01090F",
"=$	c #010203",
"-$	c #588A32",
";$	c #79BE41",
">$	c #74B03D",
",$	c #76AA38",
"'$	c #607034",
")$	c #688434",
"!$	c #63722E",
"~$	c #70B535",
"{$	c #629E33",
"]$	c #10180A",
"^$	c #020103",
"/$	c #456B26",
"($	c #639D35",
"_$	c #72B63C",
":$	c #75B937",
"<$	c #689132",
"[$	c #61802F",
"}$	c #70B336",
"|$	c #426B22",
"1$	c #000001",
"2$	c #0C1209",
"3$	c #2F4A19",
"4$	c #568B2D",
"5$	c #6BAE34",
"6$	c #70B636",
"7$	c #64A232",
"8$	c #111B09",
"9$	c #020002",
"0$	c #263C14",
"a$	c #3C601E",
"b$	c #1C2C0E",
"c$	c #000000",
"                                                                ",
"                                                                ",
"                                                                ",
"                                                                ",
"                  . + @ # $ % & *                               ",
"              = - ; > , ' ) ! ~ { ]                             ",
"            ^ / ( _ : < [ } | 1 2 3 4 5                         ",
"          6 7 8 9 0 a b c d e f g h i j k                       ",
"        l m n o p q r s t u v w x y z A B C                     ",
"      D E F G H I J K L M N O P Q R S T U V     W W X Y         ",
"      Z `  ...+.@.#.$.%.M &.*.=.-.;.>.,.'.).!.  ~.{.].^.        ",
"    /.(._.:.<.[.}.|.1.2.3.4.5.6.7.8.9.0.a.b.c.d.e.f.g.h.        ",
"    i.j.k.l.m.n.1.o.p.q.r.s.t.u.v.w.x.y.z.A.B.C.D.E.F.G.        ",
"    H.I.J.K.L.M.N.O.P.Q.R.S.T.P U.V.W.X.Y.Z.`. +.+++@+#+        ",
"    $+%+&+*+=+-+;+>+,+'+)+!+~+{+]+^+/+(+_+:+<+[+}+|+1+2+3+4+    ",
"    5+6+7+8+9+0+a+b+c+d+e+f+g+h+i+j+k+l+m+n+o+p+q+r+s+t+u+v+w+  ",
"    x+y+z+A+B+C+D+E+F+G+H+I+J+K+L+/+M+N+O+P+Q+R+S+T+U+V+W+X+Y+  ",
"    Z+`+ @.@+@@@#@$@%@&@*@=@-@;@>@,@'@)@!@~@{@]@^@/@(@_@:@<@[@  ",
"      }@|@1@2@3@4@5@6@7@8@9@0@a@b@c@d@e@f@g@h@i@j@k@l@m@n@o@p@  ",
"      q@r@s@t@u@v@w@x@y@y@z@A@B@C@D@E@F@G@H@I@J@K@L@M@N@O@P@    ",
"        Q@R@S@T@U@V@W@X@X@Y@Z@`@ #.#+#@###$#J@%#&#*#=#-#;#>#    ",
"        ,#'#)#!#~#{#]#^#/#^#(#_#:#<#[#}#|#1#2#3#4#5#6#7#8#      ",
"          9#0#a#b#c#d#e#f#e#g#h#i#j#k#l#m#n#o#p#q#r#s#t#u#      ",
"            v#w#x#y#z#A#h#i#B#z#C#D#E#F#G#H#I#J#K#L#M#N#O#      ",
"                P#Q#R#S#T#S#U#V#W#X#Y#Z#`# $.$+$@$#$$$%$        ",
"                      &$*$&$=$    -$;$>$,$'$)$!$~${$]$^$        ",
"                                    /$($_$:$<$[$}$|$1$          ",
"                                      2$3$4$5$6$7$8$1$          ",
"                                          9$0$a$b$c$            ",
"                                                c$              ",
"                                                                ",
"                                                                "};
